<svg t="1651474199062" class="icon" viewBox="0 0 1024 1024" version="1.1" xmlns="http://www.w3.org/2000/svg" p-id="2128" width="200" height="200"><path d="M790.528 634.88c122.88-24.576 208.896-65.536 208.896-122.88 0-12.288-8.192-20.48-20.48-20.48s-20.48 8.192-20.48 20.48c0 24.576-57.344 57.344-151.552 77.824 8.192-24.576 12.288-49.152 12.288-77.824 0-12.288-8.192-20.48-20.48-20.48-8.192 0-16.384 4.096-20.48 12.288-4.096-8.192-16.384-16.384-28.672-16.384-16.384 0-32.768 16.384-32.768 32.768s16.384 32.768 32.768 32.768c8.192 0 16.384-4.096 24.576-8.192-4.096 20.48-8.192 36.864-12.288 53.248-32.768 8.192-65.536 12.288-106.496 16.384v-40.96c32.768-36.864 61.44-69.632 90.112-106.496 12.288 8.192 24.576 12.288 36.864 12.288 20.48 0 36.864-8.192 49.152-20.48s20.48-32.768 20.48-49.152-4.096-40.96-16.384-53.248l-8.192-8.192c49.152-90.112 61.44-151.552 28.672-184.32-8.192-8.192-20.48-8.192-28.672 0-8.192 8.192-8.192 20.48 0 28.672 12.288 12.288 8.192 53.248-36.864 135.168v4.096c-8.192 0-20.48 0-28.672 4.096 0-4.096 0-8.192-4.096-8.192-32.768-45.056-73.728-77.824-122.88-98.304-24.576-122.88-65.536-208.896-122.88-208.896-12.288 0-20.48 8.192-20.48 20.48s8.192 20.48 20.48 20.48c24.576 0 57.344 57.344 77.824 155.648-24.576-8.192-53.248-12.288-77.824-12.288-12.288 0-20.48 8.192-20.48 20.48s8.192 20.48 20.48 20.48c28.672 0 57.344 4.096 86.016 16.384 12.288 69.632 20.48 151.552 20.48 249.856v45.056c-8.192 12.288-20.48 20.48-32.768 32.768l-32.768 32.768h-90.112c-12.288-8.192-20.48-20.48-32.768-28.672-69.632-69.632-122.88-135.168-163.84-192.512 16.384-32.768 40.96-65.536 69.632-90.112 8.192-4.096 8.192-16.384 4.096-24.576 12.288 0 16.384 4.096 16.384 8.192 16.384 12.288 32.768 20.48 53.248 20.48s36.864-8.192 49.152-20.48c28.672-28.672 28.672-73.728 0-98.304-28.672-28.672-73.728-28.672-102.4 0-20.48 20.48-24.576 53.248-8.192 81.92-8.192-8.192-20.48-8.192-28.672-4.096-28.672 24.576-53.248 53.248-69.632 86.016-40.96-65.536-61.44-114.688-61.44-143.36 0-8.192 4.096-16.384 8.192-20.48 8.192-8.192 8.192-20.48 0-28.672-8.192-8.192-20.48-8.192-28.672 0-12.288 12.288-20.48 28.672-20.48 49.152 0 45.056 28.672 110.592 77.824 184.32-12.288 36.864-20.48 73.728-20.48 110.592 0 12.288 12.288 20.48 20.48 20.48 4.096 0 12.288-4.096 16.384-4.096 0 16.384 16.384 28.672 32.768 28.672s32.768-16.384 32.768-32.768c0-8.192-4.096-16.384-8.192-24.576s-16.384-8.192-24.576-8.192c-12.288 0-20.48 4.096-24.576 12.288 0-20.48 4.096-40.96 8.192-57.344 40.96 53.248 90.112 114.688 147.456 172.032-28.672 0-61.44-4.096-90.112-8.192-8.192 0-12.288 4.096-16.384 8.192-4.096-8.192-8.192-12.288-12.288-16.384-24.576-24.576-61.44-24.576-90.112-8.192 0 0-4.096-4.096-8.192-4.096-90.112-24.576-126.976-53.248-126.976-73.728 0-12.288-8.192-20.48-20.48-20.48s-20.48 8.192-20.48 20.48c0 45.056 53.248 81.92 147.456 110.592-4.096 8.192-4.096 16.384-4.096 24.576 0 20.48 8.192 36.864 20.48 49.152 12.288 12.288 32.768 20.48 49.152 20.48 12.288 0 28.672-4.096 36.864-12.288 24.576 28.672 53.248 53.248 81.92 69.632-61.44 40.96-110.592 57.344-143.36 57.344-8.192 0-16.384-4.096-20.48-8.192-8.192-8.192-20.48-8.192-28.672 0-8.192 8.192-8.192 20.48 0 28.672 12.288 12.288 28.672 16.384 49.152 16.384 45.056 0 110.592-28.672 184.32-77.824 32.768 12.288 69.632 20.48 110.592 20.48 28.672 0 53.248-4.096 77.824-12.288-20.48 98.304-53.248 151.552-77.824 151.552-12.288 0-20.48 8.192-20.48 20.48s8.192 20.48 20.48 20.48c57.344 0 98.304-81.92 122.88-196.608 12.288 8.192 20.48 12.288 32.768 20.48-4.096 8.192-4.096 16.384-4.096 24.576 0 20.48 8.192 36.864 20.48 49.152 12.288 12.288 32.768 20.48 49.152 20.48s36.864-8.192 49.152-20.48c8.192-8.192 12.288-16.384 16.384-24.576h12.288c20.48 0 36.864-4.096 49.152-16.384 8.192-8.192 8.192-20.48 0-28.672-8.192-8.192-20.48-8.192-28.672 0-8.192 8.192-16.384 8.192-28.672 4.096-4.096-12.288-8.192-24.576-20.48-36.864-24.576-24.576-65.536-24.576-90.112-8.192-8.192-4.096-16.384-8.192-24.576-16.384 61.44-20.48 106.496-69.632 131.072-131.072z m-40.96-98.304zM385.024 221.184c8.192-4.096 16.384-8.192 24.576-8.192s16.384 4.096 20.48 8.192c12.288 12.288 12.288 28.672 0 40.96-12.288 12.288-32.768 12.288-40.96 0-16.384-8.192-16.384-28.672-4.096-40.96zM573.44 659.456h40.96c-4.096 28.672-4.096 53.248-8.192 77.824-20.48-16.384-40.96-28.672-61.44-49.152 8.192-12.288 16.384-20.48 28.672-28.672z m167.936-16.384c-24.576 40.96-57.344 73.728-94.208 94.208 4.096-28.672 8.192-57.344 8.192-86.016 28.672 0 57.344-4.096 86.016-8.192z m45.056-266.24c8.192 0 16.384 4.096 20.48 8.192 4.096 4.096 8.192 12.288 8.192 20.48s-4.096 16.384-8.192 20.48c-12.288 12.288-32.768 12.288-40.96 0-12.288-12.288-12.288-28.672 0-40.96 4.096-4.096 12.288-8.192 20.48-8.192z m-143.36-94.208c32.768 16.384 57.344 40.96 81.92 73.728 0 4.096 4.096 4.096 8.192 4.096-16.384 20.48-20.48 49.152-12.288 73.728l-61.44 73.728c0-73.728-4.096-151.552-16.384-225.28z m-385.024 385.024c-12.288 12.288-32.768 12.288-40.96 0-4.096-4.096-8.192-12.288-8.192-20.48s4.096-16.384 8.192-20.48c4.096-4.096 12.288-8.192 20.48-8.192s16.384 4.096 20.48 8.192c4.096 4.096 8.192 12.288 8.192 20.48s0 16.384-8.192 20.48z m49.152 12.288l-4.096-4.096c4.096-8.192 4.096-20.48 4.096-28.672h4.096c45.056 8.192 90.112 8.192 139.264 12.288l28.672 28.672c-28.672 24.576-57.344 45.056-81.92 65.536-32.768-20.48-65.536-45.056-90.112-73.728z m135.168 86.016c20.48-16.384 45.056-32.768 69.632-53.248 24.576 20.48 45.056 36.864 69.632 53.248-20.48 4.096-45.056 8.192-69.632 8.192-24.576 4.096-45.056 0-69.632-8.192z m286.72 53.248c8.192 0 16.384 4.096 20.48 8.192 4.096 4.096 8.192 12.288 8.192 20.48s-4.096 16.384-8.192 20.48c-12.288 12.288-32.768 12.288-40.96 0-4.096-4.096-8.192-12.288-8.192-20.48s4.096-16.384 8.192-20.48c8.192-4.096 12.288-8.192 20.48-8.192z" p-id="2129"></path><path d="M512 540.672c-8.192 0-16.384-4.096-20.48-8.192-8.192-8.192-20.48-8.192-28.672 0s-8.192 20.48 0 28.672c12.288 12.288 32.768 20.48 49.152 20.48 20.48 0 36.864-8.192 49.152-20.48 12.288-12.288 20.48-32.768 20.48-49.152 0-20.48-8.192-36.864-20.48-49.152-8.192-8.192-20.48-8.192-28.672 0s-8.192 20.48 0 28.672c4.096 4.096 8.192 12.288 8.192 20.48s-4.096 16.384-8.192 20.48c-4.096 8.192-12.288 8.192-20.48 8.192zM147.456 557.056c20.48 0 32.768-16.384 32.768-32.768 0-20.48-16.384-32.768-32.768-32.768-8.192 0-16.384 4.096-24.576 8.192-8.192 8.192-8.192 16.384-8.192 24.576 0 16.384 12.288 32.768 32.768 32.768zM847.872 524.288c0 16.384 16.384 32.768 32.768 32.768s32.768-16.384 32.768-32.768c0-8.192-4.096-16.384-8.192-24.576-4.096-8.192-16.384-8.192-24.576-8.192-16.384 0-32.768 12.288-32.768 32.768z" p-id="2130"></path></svg>
